<svg id="visual" viewBox="0 0 900 600" width="900" height="600" xmlns="http://www.w3.org/2000/svg" xmlns:xlink="http://www.w3.org/1999/xlink" version="1.1"><path d="M0 175L21.5 170C43 165 86 155 128.8 154C171.7 153 214.3 161 257.2 180C300 199 343 229 385.8 224C428.7 219 471.3 179 514.2 153C557 127 600 115 642.8 126C685.7 137 728.3 171 771.2 189C814 207 857 209 878.5 210L900 211L900 0L878.5 0C857 0 814 0 771.2 0C728.3 0 685.7 0 642.8 0C600 0 557 0 514.2 0C471.3 0 428.7 0 385.8 0C343 0 300 0 257.2 0C214.3 0 171.7 0 128.8 0C86 0 43 0 21.5 0L0 0Z" fill="#6198ff"></path><path d="M0 301L21.5 287C43 273 86 245 128.8 235C171.7 225 214.3 233 257.2 257C300 281 343 321 385.8 314C428.7 307 471.3 253 514.2 224C557 195 600 191 642.8 205C685.7 219 728.3 251 771.2 269C814 287 857 291 878.5 293L900 295L900 209L878.5 208C857 207 814 205 771.2 187C728.3 169 685.7 135 642.8 124C600 113 557 125 514.2 151C471.3 177 428.7 217 385.8 222C343 227 300 197 257.2 178C214.3 159 171.7 151 128.8 152C86 153 43 163 21.5 168L0 173Z" fill="#3c80ff"></path><path d="M0 391L21.5 383C43 375 86 359 128.8 348C171.7 337 214.3 331 257.2 343C300 355 343 385 385.8 385C428.7 385 471.3 355 514.2 343C557 331 600 337 642.8 349C685.7 361 728.3 379 771.2 394C814 409 857 421 878.5 427L900 433L900 293L878.5 291C857 289 814 285 771.2 267C728.3 249 685.7 217 642.8 203C600 189 557 193 514.2 222C471.3 251 428.7 305 385.8 312C343 319 300 279 257.2 255C214.3 231 171.7 223 128.8 233C86 243 43 271 21.5 285L0 299Z" fill="#0066ff"></path><path d="M0 529L21.5 531C43 533 86 537 128.8 535C171.7 533 214.3 525 257.2 525C300 525 343 533 385.8 538C428.7 543 471.3 545 514.2 542C557 539 600 531 642.8 534C685.7 537 728.3 551 771.2 552C814 553 857 541 878.5 535L900 529L900 431L878.5 425C857 419 814 407 771.2 392C728.3 377 685.7 359 642.8 347C600 335 557 329 514.2 341C471.3 353 428.7 383 385.8 383C343 383 300 353 257.2 341C214.3 329 171.7 335 128.8 346C86 357 43 373 21.5 381L0 389Z" fill="#0059dd"></path><path d="M0 601L21.5 601C43 601 86 601 128.8 601C171.7 601 214.3 601 257.2 601C300 601 343 601 385.8 601C428.7 601 471.3 601 514.2 601C557 601 600 601 642.8 601C685.7 601 728.3 601 771.2 601C814 601 857 601 878.5 601L900 601L900 527L878.5 533C857 539 814 551 771.2 550C728.3 549 685.7 535 642.8 532C600 529 557 537 514.2 540C471.3 543 428.7 541 385.8 536C343 531 300 523 257.2 523C214.3 523 171.7 531 128.8 533C86 535 43 531 21.5 529L0 527Z" fill="#004cbb"></path></svg>